# xmcd
#
# Track frame offsets: 
#        150
#        9875
#        20358
#        29036
#        42879
#        55157
#        64670
#        73186
#        82917
#        94159
#        108825
#
# Disc length: 1583 seconds
#
# Revision: 0
# Processed by: cddbd v1.5.2PL0 Copyright (c) Steve Scherf et al.
# Submitted via: ExactAudioCopy v1.0b1
#
DISCID=83062d0b
DTITLE=Webb Pierce - Webb Pierce's Greatest Hits
DYEAR=1900
DGENRE=Country
TTITLE0=In The Jailhouse Now
TTITLE1=Slowly
TTITLE2=I Ain't Never
TTITLE3=Wondering
TTITLE4=There Stands The Glass
TTITLE5=If The Back Door Could Talk
TTITLE6=Tupelo County Jail
TTITLE7=I Don't Care
TTITLE8=Alla My Love
TTITLE9=Don't Do It, Darlin'
TTITLE10=Missing You
EXTD=
EXTT0=
EXTT1=
EXTT2=
EXTT3=
EXTT4=
EXTT5=
EXTT6=
EXTT7=
EXTT8=
EXTT9=
EXTT10=
PLAYORDER=
